<svg xmlns="http://www.w3.org/2000/svg" viewBox="0 0 32 32"><rect width="32" height="32" fill="#fff" opacity="0"/><path fill="#d3d1fb" d="M25,11V27a2,2,0,0,1-2,2H9a2,2,0,0,1-2-2V5A2,2,0,0,1,9,3h8v8Z"/><polygon fill="#aaa6fb" points="25 11 17 11 17 3 25 11"/><path fill="none" stroke="#6a5bfb" stroke-linecap="round" stroke-linejoin="round" stroke-width="2" d="M25,11V27a2,2,0,0,1-2,2H9a2,2,0,0,1-2-2V5A2,2,0,0,1,9,3h8v8Z"/><polygon fill="none" stroke="#6a5bfb" stroke-linecap="round" stroke-linejoin="round" stroke-width="2" points="25 11 17 11 17 3 25 11"/></svg>