<svg xmlns="http://www.w3.org/2000/svg" data-name="Layer 1" viewBox="0 0 512 512"><g data-name="&lt;Group&gt;"><path fill="#00acea" d="M189.311,312.656l-75.293-22.181,40.067-105.758a10,10,0,0,0-4.025-12.006L51.817,110.885a10,10,0,1,0-10.652,16.927l91.319,57.469-40.991,108.2a10,10,0,0,0,6.526,13.135l70.849,20.873L110.562,395.79a10,10,0,1,0,15.211,12.984l68.317-80.033a10,10,0,0,0-4.779-16.085Z" data-name="&lt;Path&gt;"/></g><path fill="#00efd1" d="M418.149,141.762a10,10,0,0,0-8.811-6.347l-107.1-5.389L238.1,72.7a10,10,0,0,0-11.314-1.4c-.486.255-48.285,25.278-72.024,31.291L42.452,105.858a10,10,0,0,0-9.692,9.411L20.492,324.754a10,10,0,0,0,3.387,8.1L111.572,409.8a10,10,0,0,0,5.208,2.387L327.6,441.729l.07.009.076.011c.014,0,.028,0,.042,0a9.9,9.9,0,0,0,1.347.1c.309,0,.62-.018.93-.047l.031,0c.285-.028.571-.068.856-.121l.046-.007L437.72,421.424a9.994,9.994,0,0,0,6.825-4.876l45.67-80.193a10,10,0,0,0,.625-8.588ZM40.743,321.044,52.19,125.583,156.4,122.552a10.007,10.007,0,0,0,2.023-.266c20.763-4.937,56.979-22.733,71.472-30.094l56.466,50.472-32.724,83.745L149.339,172.3a10,10,0,1,0-9.211,17.753L242.92,243.38,179,315.622a10,10,0,0,0,14.979,13.253l61.314-69.291L314,419.627l-191.48-26.834Zm388.709,81.592L335.6,420.44,297.915,317.715,375.208,254a10,10,0,0,0-12.721-15.433l-71.872,59.248-21.017-57.3,35.3-90.333,96.979,4.879,68.6,175.539Z" data-name="&lt;Compound Path&gt;"/><path fill="#00acea" d="M379.621,246.241l38.51-97.154a10,10,0,1,0-18.592-7.37L359.552,242.6a10,10,0,0,0,.028,7.441l67.008,165.317a10,10,0,1,0,18.535-7.513Z" data-name="&lt;Path&gt;"/></svg>