<svg xmlns="http://www.w3.org/2000/svg" data-name="Layer 1" viewBox="0 0 168 168"><circle cx="2" cy="149.5" r="2" fill="#2d4356"/><path fill="#2d4356" d="M11,147.5H8a2,2,0,0,0,0,4h3a2,2,0,0,0,0-4Z"/><path fill="#0bceb2" d="M118.15387 155.5h-8.30774a2.00641 2.00641 0 0 0 0 4h8.30774a2.00641 2.00641 0 0 0 0-4zM58.15387 155.5H49.84613a2.00641 2.00641 0 0 0 0 4h8.30774a2.00641 2.00641 0 0 0 0-4zM104 155.5H64a2 2 0 0 0 0 4H79.94v2H72a2 2 0 0 0 0 4H97a2 2 0 0 0 0-4H88.06v-2H104a2 2 0 0 0 0-4zM84.57678 59.5a10 10 0 1 0-10-10A10.01114 10.01114 0 0 0 84.57678 59.5zm0-16a6 6 0 1 1-6 6A6.00656 6.00656 0 0 1 84.57678 43.5z"/><path fill="#2d4356" d="M38.17841 74.319l-.78131 2.5285h-2.397a4 4 0 0 0-2.42822 7.17859l2.109 1.61115L33.85217 88.319a4 4 0 0 0 6.25 4.35956l1.89795-1.45 1.898 1.45A4 4 0 0 0 50.14807 88.319l-.82874-2.68176 2.0459-1.56293a3.9994 3.9994 0 0 0-2.36011-7.22681h-2.402l-.78131-2.5285a4 4 0 0 0-7.64343 0zm10.82172 6.5285l-4.32623 3.30493L46.32635 89.5l-4.32623-3.305L37.67389 89.5l1.65247-5.34753-4.32623-3.30493h5.34753L42.00012 75.5l1.65247 5.34753zM137.00262 80.84753a3.99783 3.99783 0 0 0-3.9975-4h-2.402l-.78131-2.5285a4 4 0 0 0-7.64343 0l-.78131 2.5285h-2.397a4 4 0 0 0-2.42822 7.17859l2.109 1.61115-.82874 2.68176a4 4 0 0 0 6.25 4.35956l1.89795-1.45 1.898 1.45a4 4 0 0 0 6.24994-4.35956l-.82874-2.68176 2.0459-1.56293A3.99385 3.99385 0 0 0 137.00262 80.84753zm-8.32874 3.30493L130.32636 89.5l-4.32623-3.305L121.67389 89.5l1.65247-5.34753-4.32623-3.30493h5.34753L126.00012 75.5l1.65247 5.34753h5.34753zM21.5719 36.02612l2.109 1.61115L22.85217 40.319a4 4 0 0 0 6.25 4.35956l1.89795-1.45 1.898 1.45A4 4 0 0 0 39.14807 40.319l-.82874-2.68176 2.0459-1.56293a3.9994 3.9994 0 0 0-2.36011-7.22681h-2.402l-.78131-2.5285a4 4 0 0 0-7.64343 0l-.78131 2.5285h-2.397a4 4 0 0 0-2.42822 7.17859zm7.77576-3.17859L31.00012 27.5l1.65247 5.34753h5.34753l-4.32623 3.30493L35.32635 41.5l-4.32623-3.305L26.67389 41.5l1.65247-5.34753-4.32623-3.30493zM100.128 41.71014l10.14038 7.85217a10.79446 10.79446 0 0 0 13.76331-.42938l3.30023 2.386-2.98383 3.94348a4.00005 4.00005 0 0 0 1.11688 5.83447l2.68018 1.62408a3.99906 3.99906 0 0 0 5.26276-1.00745L141.76685 50.866A4 4 0 0 0 140.65 45.03156l-2.68018-1.62408a3.99906 3.99906 0 0 0-5.26276 1.00745l-2.96112 3.91357-3.24158-2.34357a11.02855 11.02855 0 0 0-2.97906-13.79541l-10.14038-7.85217a3.99992 3.99992 0 0 0-5.63879.74908L99.38721 36.134A4 4 0 0 0 100.128 41.71014zm35.76886 5.11829l2.68018 1.62408L130.21808 59.5l-2.68018-1.62408zM121.07629 35.35217A7.01014 7.01014 0 0 1 122.357 45.104a6.82135 6.82135 0 0 1-9.63965 1.29565l-3.02081-2.33917 8.35889-11.04755zM110.93591 27.5l3.95685 3.064-8.35889 11.04755-3.95691-3.064zM160 147.5h-3a2 2 0 0 0 0 4h3a2 2 0 0 0 0-4z"/><circle cx="166" cy="149.5" r="2" fill="#2d4356"/><path fill="#2d4356" d="M150.72,147.5H148v-6a2.00587,2.00587,0,0,0-2-2H110v-6a2.00587,2.00587,0,0,0-2-2H96.81a7.972,7.972,0,0,0,1.77-5V79.13l14.51-1.33a1.9943,1.9943,0,0,0,1.73-1.41L121.22,55.4a6.06554,6.06554,0,0,0,.22-2.43,12.564,12.564,0,0,1-3.97.83,2.23643,2.23643,0,0,1-.06995.44l-6.01,19.7L96.38,75.32a1.98334,1.98334,0,0,0-1.39.77,1.959,1.959,0,0,0-.41,1.42V96.5h-20v-19a2.00407,2.00407,0,0,0-3.95-.48l-6.27,25.47a1.99767,1.99767,0,0,1-3.89-.91l6.4-28.96a1.80981,1.80981,0,0,0,.03-.23,4.00836,4.00836,0,0,1,3.69-3.6l3.7-.33,4.45-.4,6.27-.55,6.4.37,4.67.27,11.53.67a1.98553,1.98553,0,0,0,2.04-1.46l3.96-13.96a12.62087,12.62087,0,0,1-3.68-1.63c-.04.09-.07.19-.1.28l-3.59,12.68L85.09,63.5a2.80823,2.80823,0,0,0-.29.01L70.26,64.8a7.98078,7.98078,0,0,0-7.32,7.07l-6.37,28.85A5.99529,5.99529,0,0,0,62.1,108c.11,0,.22.01.32.01a6.00745,6.00745,0,0,0,5.82-4.56l2.34-9.47V126.5a7.96316,7.96316,0,0,0,1.76,5H60a2.00587,2.00587,0,0,0-2,2v6H22a2.00587,2.00587,0,0,0-2,2v6H17.28a2.0172,2.0172,0,1,0,0,4H150.72a2.0172,2.0172,0,1,0,0-4ZM58,147.5H24v-4H58Zm16.58-47h20v26a4,4,0,0,1-8,0V113.88h1.37a2,2,0,0,0,0-4H84.58a1.993,1.993,0,0,0-2,2V126.5a4,4,0,0,1-8,0Zm31.42,47H62v-12h44Zm38,0H110v-4h34Z"/><path fill="#0bceb2" d="M96.08,68.15l-4.67-.27-5.14,7.49a5.84319,5.84319,0,0,0-3.09-.08l-4.44-7.23-4.45.4,5.48,8.92a6.2593,6.2593,0,1,0,9.8.25ZM84.58,83.62a2.25,2.25,0,1,1,2.25-2.24A2.24486,2.24486,0,0,1,84.58,83.62Z"/><path fill="#2d4356" d="M68 24.81673a3 3 0 1 0-3-3A3.00344 3.00344 0 0 0 68 24.81673zm0-4.5a1.5 1.5 0 1 1-1.5 1.5A1.50148 1.50148 0 0 1 68 20.31673zM162 29.01733a2 2 0 1 0 2 2A2.00229 2.00229 0 0 0 162 29.01733zm0 3a1 1 0 1 1 1-1A1.001 1.001 0 0 1 162 32.01733zM38.00012 2.5a2 2 0 1 0 2 2A2.00229 2.00229 0 0 0 38.00012 2.5zm0 3a1 1 0 1 1 1-1A1.001 1.001 0 0 1 38.00012 5.5zM160.30471 2.5a2 2 0 1 0 2 2A2.00229 2.00229 0 0 0 160.30471 2.5zm0 3a1 1 0 1 1 1-1A1.001 1.001 0 0 1 160.30471 5.5zM8 41.73483a2 2 0 1 0-2 2A2.00229 2.00229 0 0 0 8 41.73483zm-3 0a1 1 0 1 1 1 1A1.001 1.001 0 0 1 5 41.73483z"/><polygon fill="#0bceb2" points="6.415 9.249 7.902 7.294 6.963 6.762 6.009 8.952 5.977 8.952 5.008 6.777 4.052 7.325 5.524 9.234 5.524 9.265 3.223 8.968 3.223 10.032 5.539 9.735 5.539 9.766 4.052 11.674 4.944 12.238 5.962 10.032 5.992 10.032 6.931 12.222 7.917 11.659 6.415 9.781 6.415 9.75 8.777 10.032 8.777 8.968 6.415 9.281 6.415 9.249"/><polygon fill="#0bceb2" points="95.814 5.653 94.958 6.752 95.472 7.077 96.058 5.806 96.076 5.806 96.616 7.068 97.184 6.743 96.319 5.662 96.319 5.644 97.679 5.806 97.679 5.194 96.319 5.374 96.319 5.356 97.175 4.23 96.635 3.923 96.085 5.184 96.067 5.184 95.509 3.932 94.958 4.247 95.806 5.347 95.806 5.365 94.481 5.194 94.481 5.806 95.814 5.635 95.814 5.653"/><polygon fill="#0bceb2" points="158.029 58.786 158.029 57.742 155.712 58.049 155.712 58.018 157.17 56.1 156.249 55.578 155.313 57.727 155.282 57.727 154.331 55.593 153.394 56.131 154.837 58.003 154.837 58.034 152.581 57.742 152.581 58.786 154.852 58.494 154.852 58.525 153.394 60.397 154.269 60.95 155.267 58.786 155.297 58.786 156.218 60.934 157.185 60.382 155.712 58.54 155.712 58.509 158.029 58.786"/><polygon fill="#0bceb2" points="127.351 19.288 128.609 17.633 127.815 17.183 127.008 19.036 126.981 19.036 126.16 17.196 125.352 17.66 126.597 19.275 126.597 19.301 124.65 19.05 124.65 19.95 126.61 19.699 126.61 19.725 125.352 21.34 126.106 21.817 126.968 19.95 126.994 19.95 127.788 21.803 128.622 21.327 127.351 19.738 127.351 19.712 129.35 19.95 129.35 19.05 127.351 19.314 127.351 19.288"/></svg>